<svg xmlns="http://www.w3.org/2000/svg" width="800" height="800" fill="none" viewBox="0 0 24 24">
  <path fill="#000" fill-rule="evenodd" d="M18 6.5a2.5 2.5 0 0 1 5 0v12a2.5 2.5 0 0 1-5 0zm2.5-.5a.5.5 0 0 0-.5.5v12a.5.5 0 0 0 1 0v-12a.5.5 0 0 0-.5-.5M12 10.5a2.5 2.5 0 0 1 5 0v8a2.5 2.5 0 0 1-5 0zm2.5-.5a.5.5 0 0 0-.5.5v8a.5.5 0 0 0 1 0v-8a.5.5 0 0 0-.5-.5m-6 2A2.5 2.5 0 0 0 6 14.5v4a2.5 2.5 0 0 0 5 0v-4A2.5 2.5 0 0 0 8.5 12M8 14.5a.5.5 0 0 1 1 0v4a.5.5 0 0 1-1 0zm-8 4a2.5 2.5 0 1 1 5 0 2.5 2.5 0 0 1-5 0" clip-rule="evenodd"/>
</svg>
