<?xml version="1.0" encoding="iso-8859-1"?>
<!-- Uploaded to: SVG Repo, www.svgrepo.com, Generator: SVG Repo Mixer Tools -->
<!DOCTYPE svg PUBLIC "-//W3C//DTD SVG 1.1//EN" "http://www.w3.org/Graphics/SVG/1.1/DTD/svg11.dtd">
<svg height="800px" width="800px" version="1.1" id="Capa_1" xmlns="http://www.w3.org/2000/svg" xmlns:xlink="http://www.w3.org/1999/xlink" 
	 viewBox="0 0 442.449 442.449" xml:space="preserve">
<g>
	<path d="M404.075,399.722c1.32,11.05-0.73,21.57-5.89,31.43c-3.65,6.95-9.51,10.7-17.38,11.23c-1.44,0.09-2.89,0.04-4.34,0.06
		c-32.57,0.42-50.2-18.98-46.75-51.55c0.72-6.83,1.81-13.61,2.69-20.41c0.28-2.15,0.73-4.32,0.63-6.46
		c-0.59-12.85-6.97-16.97-18.57-11.68c-3.89,1.77-7.26,4.67-10.9,7c-5.16,3.31-10.09,7.12-15.58,9.73
		c-9.61,4.58-25.51,4.83-34.6-6.93c-6.72-8.69-14.88-10.46-24.99-6.73c-9.88,3.63-20.01,5.52-30.77,4.56
		c-22.43-2-39.03-11.99-48.32-32.95c-1.46-3.3-2.8-6.64-4.29-10.18c-20.78-6.19-33.23-23.14-47.07-38.06
		c-14.67-15.83-24.79-34.62-31.61-55.11c-7.24-21.71-7.02-43.48,1.07-64.81c4.6-12.12,10.49-23.74,16.82-37.86
		c-17.82,6.88-33.64,8.17-46.24-9.92c8.96-4.66,17.53-8.58,27.24-9.47c13.5-1.23,24.98-6.42,34.57-16.82
		c-5.78-11.16-14.5-18.41-26.39-22.31c-5.77-1.9-11.6-4.13-16.75-7.29c-9.36-5.74-11.66-13.94-7.86-24.31
		c5.36-14.62,27.77-30.4,43.23-30.44c7.06-0.02,10.83,2.97,13.52,11.62c2.14,6.86,3.34,14.03,5.64,20.82
		c3.48,10.26,7.78,14.84,18.86,21.7c7.69-10.59,17.64-19.83,17.47-34.66c-0.05-4.18,2.09-8.36,3.09-12.58
		c0.84-3.58,1.33-7.68,6.23-7.32c4.23,0.31,4.21,4.19,4.95,7.35c2.85,12.13,3.91,24.25,0.6,36.49c-0.45,1.67-0.31,3.5-0.52,6.23
		c7.37-2.87,13.91-5.52,20.53-7.98c24.51-9.07,49.85-12.71,75.7-9.06c30.08,4.24,50.8,21.27,61.91,49.58
		c4.07,10.39,7.49,21.04,11.4,32.11c12.38,1.04,23.65,5.65,32.36,14.92c4.63,4.93,9.12,10.49,11.9,16.58
		c8.71,19.01,11.5,39.04,11.13,60.12c-0.43,24.89-7.47,48.51-10.79,72.8c-3.22,23.54-0.95,46.07,9.46,67.63
		C393.635,363.732,401.815,380.712,404.075,399.722z M390.695,409.702c0.44-3.5,0.42-7.12,0.06-10.63
		c-1.52-15.02-7.15-28.88-14.31-41.8c-14.49-26.14-15.17-53.86-11.11-82.19c3.52-24.62,10.42-48.7,10.88-73.83
		c0.37-20.36-3.33-39.75-13.56-57.2c-7.53-12.85-19.6-20.52-35.15-19.36c-15.93,1.18-25.23,11.3-30.36,25.69
		c-4.79,13.42-4.21,27.02-0.41,40.52c4.48,15.95,5.43,32.03,2.05,48.23c-3.17,15.17-9.81,28.76-20.83,39.79
		c-9.5,9.52-18.85,9.47-28.41,0.11c-6.45-6.32-12.33-13.21-18.7-19.61c-4.57-4.6-9.29-9.11-14.36-13.14
		c-9.97-7.93-20.44-7.23-31.41-1.6c-16.3,8.36-24.81,22.72-30.9,38.95c-5.22,13.92-1.29,26.96,4.87,39.6
		c1.1,2.27,1.88,4.82,3.42,6.75c3.11,3.9,6.11,8.19,10.08,11.04c12.1,8.69,26.16,10.15,40.43,8.51c9.84-1.13,19.53-3.68,29.83-5.7
		c0-7.39,0-15.48,0-23.57c5.24,8.14,3.24,17.28,4.36,25.21c4.51,4.38,8.61,8.33,12.69,12.31c5.61,5.45,12.25,8.14,19.76,5.25
		c5.97-2.31,11.48-5.83,17.19-8.82c6.68-3.5,13.03-8.03,20.1-10.27c12.53-3.97,22.65,1.76,25.36,14.76
		c1.73,8.28,1.44,17.2,0.75,25.72c-0.98,12.12-0.87,23.76,5.29,34.71c3.22,5.71,7.6,9.91,14.21,10.5
		C381.615,431.362,387.745,433.312,390.695,409.702z M318.795,115.192c-3.2-8.9-6.54-17.96-9.72-27.08
		c-8.93-25.67-32.69-43.06-59.73-44.48c-32.04-1.68-61.82,5.73-89.15,22.05c-35.57,21.26-63.43,49.52-80.34,88.29
		c-15.58,35.73-8.88,68.32,10.21,100.04c1.86,3.09,3.84,6.25,6.37,8.75c13.1,12.97,26.35,25.8,39.71,38.5
		c1.8,1.71,4.53,2.42,7.98,4.18c-1.12-18.78,4.39-33.7,15.13-46.79c3.44-4.19,6.77-8.45,10.22-12.61
		c11.05-13.3,33.94-20.58,50.69-7.89c6.57,4.98,12.52,10.83,18.48,16.58c5.99,5.76,11.4,12.13,17.49,17.78
		c5.91,5.48,9.37,5.43,14.69-0.74c4.44-5.15,8.43-10.9,11.54-16.94c10.13-19.66,9.51-40.32,5.09-61.35
		c-1.78-8.44-3.49-17.14-3.29-25.67c0.39-16.73,5.05-32.25,18.87-43.23C307.465,121.062,312.815,118.702,318.795,115.192z
		 M152.945,54.062c3.44-9.41,6.66-18.95,6.19-29.87c-1.12,1.17-2.18,1.78-2.46,2.65c-3.99,12.38-11.93,22.02-20.96,31.03
		c-10.17,10.14-19.96,20.66-30.08,30.84c-10.44,10.52-22.67,17.59-37.74,19.28c-5.13,0.57-10.13,2.23-15.19,3.39
		c-0.1,0.88-0.19,1.77-0.28,2.65c2.71,1.17,5.39,3.22,8.15,3.34c14.68,0.64,27.72-3.94,38.11-14.45
		c15.46-15.64,30.21-32.02,49.22-43.66C149.925,58.022,152.185,56.152,152.945,54.062z M106.715,76.682
		c5-4.56,9.96-9.08,15.75-14.35c-20.13-13.82-25.72-33.51-26.48-55.02c-7.22-2.43-13.11-0.98-18.18,2.74
		c-5.79,4.26-11.52,8.79-16.45,13.99c-9.56,10.06-5.9,21.25,7.78,24.25C86.025,52.002,98.365,61.492,106.715,76.682z"/>
	<path style="fill:#603813;" d="M390.755,399.072c0.36,3.51,0.38,7.13-0.06,10.63c-2.95,23.61-9.08,21.66-28.18,19.93
		c-6.61-0.59-10.99-4.79-14.21-10.5c-6.16-10.95-6.27-22.59-5.29-34.71c0.69-8.52,0.98-17.44-0.75-25.72
		c-2.71-13-12.83-18.73-25.36-14.76c-7.07,2.24-13.42,6.77-20.1,10.27c-5.71,2.99-11.22,6.51-17.19,8.82
		c-7.51,2.89-14.15,0.2-19.76-5.25c-4.08-3.98-8.18-7.93-12.69-12.31c-1.12-7.93,0.88-17.07-4.36-25.21c0,8.09,0,16.18,0,23.57
		c-10.3,2.02-19.99,4.57-29.83,5.7c-14.27,1.64-28.33,0.18-40.43-8.51c-3.97-2.85-6.97-7.14-10.08-11.04
		c-1.54-1.93-2.32-4.48-3.42-6.75c-6.16-12.64-10.09-25.68-4.87-39.6c6.09-16.23,14.6-30.59,30.9-38.95
		c10.97-5.63,21.44-6.33,31.41,1.6c5.07,4.03,9.79,8.54,14.36,13.14c6.37,6.4,12.25,13.29,18.7,19.61
		c9.56,9.36,18.91,9.41,28.41-0.11c11.02-11.03,17.66-24.62,20.83-39.79c3.38-16.2,2.43-32.28-2.05-48.23
		c-3.8-13.5-4.38-27.1,0.41-40.52c5.13-14.39,14.43-24.51,30.36-25.69c15.55-1.16,27.62,6.51,35.15,19.36
		c10.23,17.45,13.93,36.84,13.56,57.2c-0.46,25.13-7.36,49.21-10.88,73.83c-4.06,28.33-3.38,56.05,11.11,82.19
		C383.605,370.192,389.235,384.052,390.755,399.072z M310.125,337.562c2.08-7.19,4.16-14.38,6.24-21.57
		c-1.25-0.29-2.51-0.58-3.77-0.88c-0.5,7.54-5.45,14.05-4.98,21.81C308.455,337.132,309.295,337.342,310.125,337.562z
		 M299.505,344.062c4.29-9.58,4.59-19.46,1.72-29.52C300.445,324.382,295.815,334.022,299.505,344.062z M288.275,344.652
		c3.17-10.12,2.62-19.46,1.08-28.81C284.725,331.172,284.545,336.572,288.275,344.652z M275.585,353.852
		c3.75-9.54,2.06-28.53-2.68-34.25C272.795,331.602,270.855,342.942,275.585,353.852z M264.265,348.362
		c-1.03-12.66,0.28-24.73-4.09-37.55C256.405,323.922,258.365,342.752,264.265,348.362z M232.665,342.742
		c-0.77-10.46-1.54-20.92-2.31-31.37c-1,0.09-2.01,0.17-3.01,0.26c0.25,10.52-2.03,21.32,2.61,31.36
		C230.855,342.912,231.755,342.822,232.665,342.742z M217.945,346.212c-1.49-14.03-2.86-26.92-4.23-39.82
		c-0.73,0.12-1.46,0.25-2.19,0.37C208.785,322.462,211.165,339.422,217.945,346.212z M201.205,345.702c0-16.17,0-31.12,0-46.35
		c-1.91,0.46-3.1,0.6-3.11,0.77c-0.33,13.54-0.7,27.09-0.66,40.63C197.445,342.322,199.765,343.892,201.205,345.702z
		 M187.275,336.502c1.57-11.34,1.6-22.7,1.51-34.06c-0.01-0.85-0.84-1.69-2.06-3.98
		C185.435,312.192,184.575,324.342,187.275,336.502z M173.935,327.252c0.9-12.95,1.79-25.75,2.75-39.46
		C170.755,299.162,169.505,319.432,173.935,327.252z"/>
	<path d="M316.365,315.992c-2.08,7.19-4.16,14.38-6.24,21.57c-0.83-0.22-1.67-0.43-2.51-0.64c-0.47-7.76,4.48-14.27,4.98-21.81
		C313.855,315.412,315.115,315.702,316.365,315.992z"/>
	<path style="fill:#C1272D;" d="M309.075,88.112c3.18,9.12,6.52,18.18,9.72,27.08c-5.98,3.51-11.33,5.87-15.76,9.39
		c-13.82,10.98-18.48,26.5-18.87,43.23c-0.2,8.53,1.51,17.23,3.29,25.67c4.42,21.03,5.04,41.69-5.09,61.35
		c-3.11,6.04-7.1,11.79-11.54,16.94c-5.32,6.17-8.78,6.22-14.69,0.74c-6.09-5.65-11.5-12.02-17.49-17.78
		c-5.96-5.75-11.91-11.6-18.48-16.58c-16.75-12.69-39.64-5.41-50.69,7.89c-3.45,4.16-6.78,8.42-10.22,12.61
		c-10.74,13.09-16.25,28.01-15.13,46.79c-3.45-1.76-6.18-2.47-7.98-4.18c-13.36-12.7-26.61-25.53-39.71-38.5
		c-2.53-2.5-4.51-5.66-6.37-8.75c-19.09-31.72-25.79-64.31-10.21-100.04c16.91-38.77,44.77-67.03,80.34-88.29
		c27.33-16.32,57.11-23.73,89.15-22.05C276.385,45.052,300.145,62.442,309.075,88.112z M283.505,112.112
		c4.1-0.08,7.93-3.84,7.51-7.38c-0.41-3.49-4.84-6.93-8.65-6.4c-3.86,0.55-6.77,2.53-6.93,6.82
		C275.295,108.792,279.425,112.182,283.505,112.112z M269.045,74.302c1.97-0.39,3.63-2.37,7.37-4.99c-4.4-2.06-6.88-3.99-9.46-4.13
		c-1.49-0.08-4.46,2.71-4.47,4.21C262.485,73.102,265.535,74.982,269.045,74.302z M256.145,221.302c0.29-3.73-3.74-6.89-10.25-6.66
		c-1.13,1.41-4.09,3.61-4.88,6.42c-0.94,3.31,4.06,7.26,7.97,6.91C252.975,227.612,255.815,225.542,256.145,221.302z
		 M254.185,181.432c0.06-3.76-3.73-7.56-7.67-7.69c-4.27-0.14-7.91,3.01-8.11,7.02c-0.19,4.06,3.13,7.44,7.51,7.62
		C250.025,188.562,254.135,185.102,254.185,181.432z M240.285,134.652c4.54-0.04,8.58-3.72,8.57-7.81c-0.02-4.37-3.63-7.3-8.8-7.14
		c-4.84,0.15-8.84,3.56-8.8,7.49C231.305,130.872,235.915,134.692,240.285,134.652z M229.885,87.012c4.7-0.21,9.38-4.73,9.13-8.83
		c-0.25-4.2-5.28-8.45-9.72-8.22c-4.69,0.24-8.98,4.54-8.97,8.99C220.335,83.372,224.905,87.222,229.885,87.012z M213.035,210.022
		c0.09-3.9-4.27-7.73-8.73-7.65c-4,0.07-7.6,3.53-7.69,7.39c-0.09,4.19,4.03,7.87,8.53,7.61
		C209.275,217.132,212.945,213.722,213.035,210.022z M196.655,160.792c3.97-0.09,8.1-3.76,8.09-7.19c-0.01-3.33-4.26-7.28-7.99-7.42
		c-3.82-0.14-8.14,3.29-8.51,6.78C187.825,156.972,192.035,160.902,196.655,160.792z M175.105,108.272
		c4.59-0.14,8.24-4.03,8.01-8.53c-0.23-4.28-4.34-8.05-8.72-8.01c-4.53,0.05-8.15,3.96-7.89,8.52
		C166.755,104.762,170.665,108.402,175.105,108.272z M162.565,199.612c4.85-0.27,8.76-4.74,8.26-9.5c-0.51-4.84-3.72-6.85-8.1-7.08
		c-4.82-0.26-9.2,4.23-9.03,8.86C153.835,196.132,158.115,199.852,162.565,199.612z M136.385,275.102
		c5.37-10.02,8.48-20.7,9.51-32.14C140.335,252.912,134.765,262.982,136.385,275.102z M140.345,141.702
		c0.35-5.42-3.34-9.26-8.01-9.17c-4.08,0.07-6.88,2.03-7.4,6.28c-0.52,4.22,3.43,8.12,8.15,8.07
		C137.125,146.832,139.965,145.102,140.345,141.702z M131.135,216.252c0.37-2.33,0.79-4.65,1.39-8.16
		c-5.03,6.32-9.2,11.39-13.15,16.64c-0.77,1.02-1.37,3.04-0.87,4.01c3.21,6.27-0.19,11.83-1.44,17.66
		c-1.77,8.24-4.85,16.4-1.75,27.1c1.51-3.89,2.59-5.98,3.13-8.2c1.94-8.04,3.57-16.16,5.59-24.18c0.74-2.95,1.52-6.61,6.54-5.01
		c-2.15,9.68-4.28,19.27-6.4,28.85c0.98,0.25,1.96,0.49,2.94,0.73c3.99-13.92,7.98-27.84,12.03-41.99
		C130.115,222.812,130.105,222.802,131.135,216.252z M108.335,256.852c4.23-20.96,8.25-40.87,12.26-60.79
		c-6.9,8.6-8.34,19.02-10.79,28.99C104.545,246.472,104.595,248.602,108.335,256.852z M99.715,240.132
		c4.75-19.98,9.5-39.96,14.53-61.09c-5.7-0.82-10.11-1.45-14.46-2.08c-0.11-1.73-0.23-3.73-0.45-7.25
		c-9.37,18.5-15.29,45.71-12.21,57.79c3.34-14.69,6.32-27.79,9.37-41.2c3.99,2.78,7.22,5.03,10.36,7.21
		c-2.24,8.03-4.55,15.6-6.43,23.28C98.555,224.432,95.615,232.102,99.715,240.132z M77.335,202.802
		c5.37-8.33,14.64-40.33,14.38-48.68C84.155,169.552,79.885,184.912,77.335,202.802z"/>
	<path d="M301.225,314.542c2.87,10.06,2.57,19.94-1.72,29.52C295.815,334.022,300.445,324.382,301.225,314.542z"/>
	<path d="M291.015,104.732c0.42,3.54-3.41,7.3-7.51,7.38c-4.08,0.07-8.21-3.32-8.07-6.96c0.16-4.29,3.07-6.27,6.93-6.82
		C286.175,97.802,290.605,101.242,291.015,104.732z"/>
	<path d="M289.355,315.842c1.54,9.35,2.09,18.69-1.08,28.81C284.545,336.572,284.725,331.172,289.355,315.842z"/>
	<path d="M272.905,319.602c4.74,5.72,6.43,24.71,2.68,34.25C270.855,342.942,272.795,331.602,272.905,319.602z"/>
	<path d="M276.415,69.312c-3.74,2.62-5.4,4.6-7.37,4.99c-3.51,0.68-6.56-1.2-6.56-4.91c0.01-1.5,2.98-4.29,4.47-4.21
		C269.535,65.322,272.015,67.252,276.415,69.312z"/>
	<path d="M260.175,310.812c4.37,12.82,3.06,24.89,4.09,37.55C258.365,342.752,256.405,323.922,260.175,310.812z"/>
	<path d="M245.895,214.642c6.51-0.23,10.54,2.93,10.25,6.66c-0.33,4.24-3.17,6.31-7.16,6.67c-3.91,0.35-8.91-3.6-7.97-6.91
		C241.805,218.252,244.765,216.052,245.895,214.642z"/>
	<path d="M246.515,173.742c3.94,0.13,7.73,3.93,7.67,7.69c-0.05,3.67-4.16,7.13-8.27,6.95c-4.38-0.18-7.7-3.56-7.51-7.62
		C238.605,176.752,242.245,173.602,246.515,173.742z"/>
	<path d="M248.855,126.842c0.01,4.09-4.03,7.77-8.57,7.81c-4.37,0.04-8.98-3.78-9.03-7.46c-0.04-3.93,3.96-7.34,8.8-7.49
		C245.225,119.542,248.835,122.472,248.855,126.842z"/>
	<path d="M239.015,78.182c0.25,4.1-4.43,8.62-9.13,8.83c-4.98,0.21-9.55-3.64-9.56-8.06c-0.01-4.45,4.28-8.75,8.97-8.99
		C233.735,69.732,238.765,73.982,239.015,78.182z"/>
	<path d="M230.355,311.372c0.77,10.45,1.54,20.91,2.31,31.37c-0.91,0.08-1.81,0.17-2.71,0.25c-4.64-10.04-2.36-20.84-2.61-31.36
		C228.345,311.542,229.355,311.462,230.355,311.372z"/>
	<path d="M213.715,306.392c1.37,12.9,2.74,25.79,4.23,39.82c-6.78-6.79-9.16-23.75-6.42-39.45
		C212.255,306.642,212.985,306.512,213.715,306.392z"/>
	<path d="M204.305,202.372c4.46-0.08,8.82,3.75,8.73,7.65c-0.09,3.7-3.76,7.11-7.89,7.35c-4.5,0.26-8.62-3.42-8.53-7.61
		C196.705,205.902,200.305,202.442,204.305,202.372z"/>
	<path d="M204.745,153.602c0.01,3.43-4.12,7.1-8.09,7.19c-4.62,0.11-8.83-3.82-8.41-7.83c0.37-3.49,4.69-6.92,8.51-6.78
		C200.485,146.322,204.735,150.272,204.745,153.602z"/>
	<path d="M201.205,299.352c0,15.23,0,30.18,0,46.35c-1.44-1.81-3.76-3.38-3.77-4.95c-0.04-13.54,0.33-27.09,0.66-40.63
		C198.105,299.952,199.295,299.812,201.205,299.352z"/>
	<path d="M188.785,302.442c0.09,11.36,0.06,22.72-1.51,34.06c-2.7-12.16-1.84-24.31-0.55-38.04
		C187.945,300.752,188.775,301.592,188.785,302.442z"/>
	<path d="M183.115,99.742c0.23,4.5-3.42,8.39-8.01,8.53c-4.44,0.13-8.35-3.51-8.6-8.02c-0.26-4.56,3.36-8.47,7.89-8.52
		C178.775,91.692,182.885,95.462,183.115,99.742z"/>
	<path d="M176.685,287.792c-0.96,13.71-1.85,26.51-2.75,39.46C169.505,319.432,170.755,299.162,176.685,287.792z"/>
	<path d="M170.825,190.112c0.5,4.76-3.41,9.23-8.26,9.5c-4.45,0.24-8.73-3.48-8.87-7.72c-0.17-4.63,4.21-9.12,9.03-8.86
		C167.105,183.262,170.315,185.272,170.825,190.112z"/>
	<path style="fill:#006837;" d="M159.135,24.192c0.47,10.92-2.75,20.46-6.19,29.87c-0.76,2.09-3.02,3.96-5.04,5.2
		c-19.01,11.64-33.76,28.02-49.22,43.66c-10.39,10.51-23.43,15.09-38.11,14.45c-2.76-0.12-5.44-2.17-8.15-3.34
		c0.09-0.88,0.18-1.77,0.28-2.65c5.06-1.16,10.06-2.82,15.19-3.39c15.07-1.69,27.3-8.76,37.74-19.28
		c10.12-10.18,19.91-20.7,30.08-30.84c9.03-9.01,16.97-18.65,20.96-31.03C156.955,25.972,158.015,25.362,159.135,24.192z"/>
	<path d="M145.895,242.962c-1.03,11.44-4.14,22.12-9.51,32.14C134.765,262.982,140.335,252.912,145.895,242.962z"/>
	<path d="M132.335,132.532c4.67-0.09,8.36,3.75,8.01,9.17c-0.38,3.4-3.22,5.13-7.26,5.18c-4.72,0.05-8.67-3.85-8.15-8.07
		C125.455,134.562,128.255,132.602,132.335,132.532z"/>
	<path d="M132.525,208.092c-0.6,3.51-1.02,5.83-1.39,8.16c-1.03,6.55-1.02,6.56,8.01,7.45c-4.05,14.15-8.04,28.07-12.03,41.99
		c-0.98-0.24-1.96-0.48-2.94-0.73c2.12-9.58,4.25-19.17,6.4-28.85c-5.02-1.6-5.8,2.06-6.54,5.01c-2.02,8.02-3.65,16.14-5.59,24.18
		c-0.54,2.22-1.62,4.31-3.13,8.2c-3.1-10.7-0.02-18.86,1.75-27.1c1.25-5.83,4.65-11.39,1.44-17.66c-0.5-0.97,0.1-2.99,0.87-4.01
		C123.325,219.482,127.495,214.412,132.525,208.092z"/>
	<path d="M120.595,196.062c-4.01,19.92-8.03,39.83-12.26,60.79c-3.74-8.25-3.79-10.38,1.47-31.8
		C112.255,215.082,113.695,204.662,120.595,196.062z"/>
	<path style="fill:#006837;" d="M122.465,62.332c-5.79,5.27-10.75,9.79-15.75,14.35c-8.35-15.19-20.69-24.68-37.58-28.39
		c-13.68-3-17.34-14.19-7.78-24.25c4.93-5.2,10.66-9.73,16.45-13.99c5.07-3.72,10.96-5.17,18.18-2.74
		C96.745,28.822,102.335,48.512,122.465,62.332z"/>
	<path d="M114.245,179.042c-5.03,21.13-9.78,41.11-14.53,61.09c-4.1-8.03-1.16-15.7,0.71-23.34c1.88-7.68,4.19-15.25,6.43-23.28
		c-3.14-2.18-6.37-4.43-10.36-7.21c-3.05,13.41-6.03,26.51-9.37,41.2c-3.08-12.08,2.84-39.29,12.21-57.79
		c0.22,3.52,0.34,5.52,0.45,7.25C104.135,177.592,108.545,178.222,114.245,179.042z"/>
	<path d="M91.715,154.122c0.26,8.35-9.01,40.35-14.38,48.68C79.885,184.912,84.155,169.552,91.715,154.122z"/>
</g>
</svg>