<?xml version="1.0" encoding="utf-8"?>
<!-- Uploaded to: SVG Repo, www.svgrepo.com, Generator: SVG Repo Mixer Tools -->
<svg width="800px" height="800px" viewBox="0 0 1024 1024" class="icon"  version="1.1" xmlns="http://www.w3.org/2000/svg"><path d="M884.5 234.3v430.5H745c4.6-52.8 26.2-95.5 39.8-121.6 5.1-9.8 5.8-21.5 1.7-31.9-3.9-9.9-11.8-17.7-21.6-21.3-77.2-28.1-162.8 18.2-190.5 35.2-9.4-18.4-25.7-33.7-52.8-34.7-0.7-0.1-17-2.4-32 10.5-6.7 5.8-12.1 13.6-16 23.5-19.8-13.1-121-74.5-207.4-34.3-7.2 3.4-12.6 9.5-15.1 17.1-2.5 7.9-1.7 16.5 2.3 23.7 14.7 26.9 38.3 77.1 43.7 133.7H156.9V234.3h727.6z m-427.4 178v-24.7H246.5v24.7h210.6z m-84.9-65.7V322H246.5v24.7h125.7z" fill="#519681" /><path d="M775.8 515.5c2.9 7.3 2.4 15.4-1.3 22.4-12.8 24.6-32.7 69-39.5 119.5-0.8-0.8-1.6-1.6-2.4-2.3-32.6-28.2-124.3-5.8-153.9 2.5 5.6-10.4 8.5-23.1 8.5-37.9l-1.7-44.6c0.2-10.9-1.5-25.3-6.5-39.2 24.3-15.1 108.9-61.7 182-35.2 6.8 2.6 12.1 7.8 14.8 14.8z" fill="#EF4668" /><path d="M740.4 664.8h4.6c-0.3 3.8-0.6 7.5-0.7 11.4h-0.1c-0.6-4.1-1.8-8-3.8-11.4z" fill="#C6284E" /><path d="M744.3 676.2c-0.1 0.3-0.1 0.6 0 0.9 0-0.3 0-0.6-0.1-0.9h0.1z" fill="#231815" /><path d="M744.2 676.2h-11c0.2-3.9 0.6-7.7 1-11.4h6.2c2 3.4 3.2 7.3 3.8 11.4zM735 657.5c2.2 2.2 3.9 4.7 5.4 7.3h-6.2c0.3-2.5 0.5-4.9 0.8-7.3zM732.6 694.4c0-1.6 0-3.3 0.1-4.9v-0.1c0.1-0.1 0.1-0.2 0.1-0.2 0.6-3.7 0.6-7.1 0.2-10.2 0-0.9 0-1.8 0.1-2.7h11c0.1 0.3 0.1 0.6 0.1 0.9-0.2 3-0.2 6.2-0.2 9.3l-11.4 7.9z" fill="#C6284E" /><path d="M733 664.8h1.3c-0.5 3.8-0.8 7.5-1 11.4h-0.3v-11.4z" fill="#C6284E" /><path d="M733.1 678.9c0.3 3.1 0.3 6.5-0.2 10.2 0 0 0 0.1-0.1 0.2 0-3.5 0.1-6.9 0.3-10.4z" fill="#EF4668" /><path d="M733.1 678.9c-0.8-6.1-3.4-11.2-8-15.2-27.8-24-119.3-2.7-152.2 7.4l-1.1-3.4c2.6-3.1 4.9-6.4 7-10.1 29.6-8.3 121.4-30.7 153.9-2.5 0.8 0.7 1.6 1.5 2.4 2.3-0.3 2.4-0.6 4.8-0.8 7.3H733v11.4h0.2c-0.1 1-0.1 1.9-0.1 2.8z" fill="#C6284E" /><path d="M761 500.8c-73.1-26.5-157.7 20.1-182 35.2-1.3-3.7-2.9-7.3-4.6-10.7 27.7-17 113.2-63.3 190.5-35.2 9.8 3.5 17.7 11.3 21.6 21.3 4.1 10.4 3.4 22.1-1.7 31.9-13.6 26.1-35.2 68.8-39.8 121.6h-4.6c-1.5-2.6-3.2-5.1-5.4-7.3 6.9-50.5 26.7-95 39.5-119.5 3.7-7 4.1-15.1 1.3-22.4-2.7-7.2-8-12.4-14.8-14.9zM744 691.9c-0.6 1.9-8.3 24.1-32.8 33.4-7 2.6-14.5 3.9-22.6 3.9-17.1 0-73.4-4.5-100.6-16.1-0.8-1.8-1.3-2.7-1.3-2.9l-2.5 1c-0.7-0.3-1.4-0.7-1.9-1l5.6-9.9c31.5 18.1 99.6 21.7 119.3 14.3 18.1-6.7 24.7-22.6 25.6-25-0.1 1.6-0.1 3.3-0.1 4.9l11.4-8c0-3.1 0-6.3 0.2-9.3 0.6 4.5 0.5 9.4-0.3 14.7z" fill="#C6284E" /><path d="M586.7 710.1c0 0.1 0.5 1 1.3 2.9-1.4-0.6-2.6-1.1-3.8-1.8l2.5-1.1zM574.4 525.3c1.7 3.4 3.3 7.1 4.6 10.7-4.3 2.6-6.9 4.3-7 4.5l-6.6-9.4c0.6-0.5 3.8-2.6 9-5.8z" fill="#C6284E" /><path d="M574 575.1l1.7 44.9c0 19.1-5.4 33.8-16 43.9-17.3 16.5-43.2 15.2-43.9 15.2-13.8 0.2-24.3-3.2-30.9-10.4-9.6-10.3-8.1-25.5-8.1-26.3v-67.2c0-31.4 6.9-54.1 19.9-65.4 11-9.5 22.6-8 23.8-7.9 54.3 2.1 53.7 70.3 53.5 73.2zM567.5 672.2c1.5-1.4 3-2.9 4.2-4.5l1.1 3.4c32.9-10.2 124.4-31.4 152.2-7.4 4.6 4 7.2 9.1 8 15.2-0.2 3.4-0.3 6.9-0.3 10.4v0.1c-0.9 2.4-7.5 18.3-25.6 25-19.7 7.4-87.8 3.8-119.3-14.3l-5.6 9.9c0.6 0.3 1.3 0.7 1.9 1l-8 3.4c0.5 0.9 3.1 7.2 7.5 16.8l-31.4 8.7c-4-9.1-9.1-18.5-15.3-28l-19.1-21.6c7.7 0.2 31.9-1.2 49.7-18.1z" fill="#EF4668" /><path d="M571.8 667.8l-2.3-7.4c0.7-0.2 4-1.3 9.3-2.6-2.1 3.6-4.4 6.9-7 10z" fill="#C6284E" /><path d="M652.9 871.2l-107.4 44.9c-4 2.1-8.6 2.2-12.6 0.5-4.1-1.7-7.2-5-8.5-9.3l-13.1-41.6h27.1c13.3 0 24.6-9.5 27.1-22.5 4-21 6.5-59.3-13.1-103.1l31.4-8.7c13.5 28.7 42.6 86.5 72.3 116.1 3.4 3.4 5 8.2 4.2 12.9-0.7 4.8-3.5 8.8-7.4 10.8z" fill="#EF4668" /><path d="M652.9 871.2c3.9-1.9 6.7-5.9 7.4-10.7 0.8-4.7-0.8-9.5-4.2-12.9-29.7-29.6-58.9-87.4-72.3-116.1-4.5-9.6-7.1-15.9-7.5-16.8l8-3.4c1.1 0.7 2.4 1.3 3.8 1.8 6.9 15.7 41.8 92.3 76.1 126.4 6.2 6.1 8.9 14.4 7.5 22.9-1.3 8.3-6.4 15.4-13.9 19.3l-107.4 44.9c-3.5 1.8-7.5 2.7-11.5 2.7-3.4 0-7-0.7-10.3-2.1-7.2-3.1-12.6-9-15-16.5l-14.1-45h11.9l13.1 41.6c1.3 4.2 4.3 7.5 8.5 9.3 4 1.7 8.6 1.6 12.6-0.5l107.3-44.9z" fill="#C6284E" /><path d="M509 858.2l2.3 7.5h-11.9l-1.2-4zM574 575.1c0.1-2.9 0.8-71.1-53.5-73.1-1.1-0.1-12.8-1.6-23.8 7.9-13 11.3-19.9 33.9-19.9 65.4v67.2c0 0.8-1.5 16 8.1 26.3 6.5 7.2 17 10.6 30.9 10.4 0.7 0 26.6 1.3 43.9-15.2 10.6-10.1 16-24.8 16-43.9l-1.7-45z m-2.2 92.7c-1.3 1.6-2.7 3.1-4.2 4.5-17.8 16.9-42.1 18.3-49.6 18.3h-2.3c-17 0.3-30.3-4.5-39.2-14.2-3.1-3.3-5.3-7-6.7-10.5l3.1-9.8c-0.6-0.2-3-0.9-6.6-1.9-1.1-6.7-0.6-11.9-0.6-12.2l-0.1-66.6c0-15.1 1.5-28.2 4.5-39.4l0.3 0.3 6.6-9.4-3.3-2.2c3.9-9.9 9.3-17.7 16-23.5 15-12.9 31.3-10.6 32-10.5 27.1 1 43.4 16.3 52.8 34.7-5.1 3.2-8.3 5.4-9 5.8l6.6 9.4c0.1-0.1 2.6-1.8 7-4.5 5 13.9 6.7 28.3 6.5 39.2l1.7 44.6c0 14.9-2.9 27.5-8.5 37.9-5.3 1.4-8.6 2.4-9.3 2.6l2.3 7.4z" fill="#C6284E" /><path d="M469.9 535.8c0.9-4 2.2-7.8 3.7-11.2 1.8 1.1 3 1.9 3.3 2.2l-6.6 9.4c0-0.1-0.1-0.2-0.4-0.4zM472.8 656l-3.1 9.8c-1.9-4.1-3-8.2-3.5-11.8 3.6 1.1 6 1.8 6.6 2z" fill="#C6284E" /><path d="M469.9 535.8c-3 11.2-4.5 24.3-4.5 39.4l0.1 66.6c0 0.3-0.6 5.5 0.6 12.2-26.4-7.5-123-32.3-156.6-3.2-0.9 0.8-1.7 1.5-2.4 2.3-7.3-54.3-29.5-101.5-43.9-127.5-2.4-4.5-3-9.8-1.4-14.6 1.5-4.6 4.8-8.3 9.1-10.3 85.8-40 192.1 30.4 199 35.1z" fill="#EF4668" /><path d="M246.5 387.7h210.6v24.7H246.5z" fill="#FFF0C2" /><path d="M448.7 661.1c8.1 2.1 15.2 4 20.7 5.7l0.3-1c1.5 3.5 3.7 7.2 6.7 10.5 8.9 9.7 22.2 14.5 39.2 14.2h2.3l19.1 21.6-9.6 6.3c33.8 51.7 31.3 99 26.9 122.6-1.5 7.7-8.1 13.3-15.9 13.3H421.6c-3.2 0-5.9-1.7-7.5-4.5-0.7-1.3-2.1-4.6 0.2-8.1 29.3-46.2 43.9-142.4 44.5-146.5l-10.2-1.6-4.8-8.5 4.9-24z" fill="#EF4668" /><path d="M448.6 693.6l0.8 1.4c-0.7 0.5-1.5 0.8-2.3 1.3 0.2-1.7 0.5-2.6 0.5-2.7h1z" fill="#C6284E" /><path d="M317.1 659.4c23.2-20 90.6-8.6 131.5 1.7l-4.9 24c-31.4 17.9-88.9 32.5-108.4 25.1-9.6-3.7-16-9.7-20.1-15-3.9-5.3-5.5-9.6-5.6-9.6 0-0.2-0.1-0.5-0.1-0.7 0-3.3-0.1-6.7-0.2-10.1 0.7-6.2 3.3-11.4 7.8-15.4z" fill="#EF4668" /><path d="M552.3 740.1c19.7 43.8 17.1 82 13.1 103.1-2.5 13-13.8 22.5-27.1 22.5h-27.1l-2.3-7.4-10.9 3.4 1.3 4h-77.8c-7.3 0-13.9-4-17.5-10.4-3.5-6.3-3.3-13.6 0.6-19.7 25.3-40 39.8-123.4 42.4-139.4 0.8-0.5 1.6-0.8 2.3-1.3l-0.8-1.4 10.2 1.6c-0.6 4.1-15.2 100.3-44.5 146.5-2.3 3.5-0.9 6.9-0.2 8.1 1.6 2.7 4.3 4.5 7.5 4.5h116.8c7.8 0 14.4-5.6 15.9-13.3 4.5-23.7 7-71-26.9-122.6l9.6-6.3c6.3 9.6 11.4 18.9 15.4 28.1z" fill="#C6284E" /><path d="M246.5 322h125.7v24.7H246.5z" fill="#FFF0C2" /><path d="M469.4 666.8c-5.5-1.7-12.6-3.7-20.7-5.7-40.9-10.3-108.3-21.7-131.5-1.7-4.6 4-7.2 9.1-7.9 15.5-0.3-7.4-1-14.7-2.1-21.8 0.7-0.8 1.5-1.5 2.4-2.3 33.6-29.1 130.2-4.3 156.6 3.2 0.6 3.5 1.6 7.7 3.5 11.8l-0.3 1zM309.6 685.7c0.1 0 1.7 4.3 5.6 9.6 4.1 5.3 10.5 11.3 20.1 15 19.5 7.3 77-7.2 108.4-25.1l4.8 8.5-1-0.1c0 0.1-0.2 1-0.5 2.7-25 13.6-75.4 28.6-93.4 28.6-8.1 0-15.7-1.3-22.6-3.9-21.3-8-29.9-25.8-32.1-31l10.6 0.1c0-1.7 0-3.4-0.1-5 0.1 0.1 0.2 0.4 0.2 0.6z" fill="#C6284E" /><path d="M309.5 685c-0.6-3.7-0.6-7-0.2-10.1 0.1 3.4 0.2 6.8 0.2 10.1z" fill="#EF4668" /><path d="M309.5 685c0.1 1.6 0.1 3.3 0.1 5l-10.6-0.1c-0.2-0.8-0.5-1.4-0.5-1.5-0.2-1.4-0.3-2.6-0.5-3.9 0-2.9 0-5.6-0.2-8.3v-0.5c0.5-9.1 3.7-16.6 9.4-22.6 1 7.1 1.7 14.4 2.1 21.8-0.4 3.1-0.4 6.4 0.2 10.1z" fill="#C6284E" /><path d="M298.1 684.5c0.1 1.3 0.2 2.5 0.5 3.9 0 0.1 0.2 0.7 0.5 1.5h-0.8c-0.1-1.8-0.1-3.6-0.2-5.4zM297.8 676.2c0.2 2.7 0.2 5.5 0.2 8.3-0.3-2.9-0.4-5.7-0.2-8.3zM297.7 664.8v9.5c-0.1-3.2-0.3-6.4-0.7-9.5h0.7z" fill="#C6284E" /><path d="M473.6 524.6c-1.5 3.4-2.7 7.2-3.7 11.2-7-4.7-113.2-75.1-198.8-35.1-4.3 1.9-7.7 5.7-9.1 10.3-1.6 4.8-1 10.2 1.4 14.6 14.4 26.1 36.6 73.2 43.9 127.5-5.7 6.1-8.9 13.5-9.4 22.6 0-0.6 0-1-0.1-1.5v-9.5h-0.8c-5.4-56.6-28.9-106.8-43.7-133.7-4-7.2-4.8-15.8-2.3-23.7 2.5-7.7 7.9-13.7 15.1-17.1 86.5-40.1 187.7 21.2 207.5 34.4z" fill="#C6284E" /><path d="M145.5 222.9h750.4v453.3H744.3c0.1-3.9 0.3-7.7 0.7-11.4h139.5V234.3H156.9v430.5H297c0.3 3.1 0.6 6.3 0.7 9.5v1.9H145.5V222.9z" fill="#315653" /></svg>