<svg xmlns="http://www.w3.org/2000/svg" xml:space="preserve" viewBox="0 0 512 512">
  <path d="M187.406 0h-59.448C110.89 0 97.064 13.827 97.064 30.886v74.229h90.342zm21.837 0h90.341v105.115h-90.341zm202.529 30.886C411.772 13.827 397.936 0 380.877 0H321.43v105.115h90.342zm77.142 285.602-43.841-145.78c-1.602-5.376-6.604-9.096-12.243-9.096h-21.097v-33.405H321.41v68.656l-21.854 8.721v-77.377h-90.323v85.77l-21.864-11.597v-74.173H97.056v37.639H83.463c-5.387 0-10.127 3.326-12.057 8.328L23.332 302.38c-1.537 4.103-.834 8.656 1.733 12.188a13.02 13.02 0 0 0 11.148 5.124l47.251-3.204v162.819c0 18.08 14.613 32.693 32.693 32.693H394.75c18.07 0 32.693-14.613 32.693-32.693V327.644l47.822 5.321c4.234.44 8.525-1.293 11.213-4.553 2.755-3.278 3.72-7.83 2.436-11.924m-250.257-36.16-26.155 1.789-3.269.196-21.864 1.48-90.314 6.08-13.592.908-29.106 1.986 37.948-101.282h20l75.063 39.868 30.07 16.028 16.599 8.777h.066l.449.263 3.017 1.602 3.972 2.117 27.624 14.679 5.771 3.072zm94.492 10.004c.702-3.212 14.379.469 24.918 3.654zm94.295 11.411-15.71-1.733-47.212-5.302-40.731-19.887-2.38-1.283-21.854-11.607-10.389-5.508-20.44-10.838 30.567-12.244h.262v-.13l21.854-8.712 90.323-36.094 2.83-1.153h8.712l35.512 118.015z" style="fill:#000"/>
</svg>
