<svg xmlns="http://www.w3.org/2000/svg" width="800" height="800" class="cf-icon-svg" viewBox="-1.7 0 20.4 20.4">
  <path d="M16.417 10.283A7.917 7.917 0 1 1 8.5 2.366a7.916 7.916 0 0 1 7.917 7.917m-4.844 1.754a2.25 2.25 0 0 0-.556-1.477l-.001-.002a3 3 0 0 0-.835-.665l-.003-.002a3.5 3.5 0 0 0-.866-.313H9.31a3.8 3.8 0 0 0-.795-.083 3 3 0 0 1-.475-.037 1.8 1.8 0 0 1-.494-.158l-.002-.001a1.2 1.2 0 0 1-.371-.298L7.172 9a.73.73 0 0 1-.175-.44.75.75 0 0 1 .421-.63 2.16 2.16 0 0 1 1.11-.297 2.3 2.3 0 0 1 .391.066l.049.01a2.5 2.5 0 0 1 .473.166 1.3 1.3 0 0 1 .381.261.792.792 0 1 0 1.118-1.12 2.9 2.9 0 0 0-.85-.585 4 4 0 0 0-.785-.268h-.001l-.008-.002v-.786a.792.792 0 1 0-1.583 0v.763a3.6 3.6 0 0 0-1.14.454 2.33 2.33 0 0 0-1.159 1.967 2.3 2.3 0 0 0 .529 1.44 2.7 2.7 0 0 0 .894.717 3.3 3.3 0 0 0 .942.305 4.4 4.4 0 0 0 .736.059 2.2 2.2 0 0 1 .46.046 2 2 0 0 1 .467.168 1.4 1.4 0 0 1 .382.308.67.67 0 0 1 .165.436c0 .097 0 .324-.385.573a2.2 2.2 0 0 1-1.132.314 3.5 3.5 0 0 1-.494-.06 2.4 2.4 0 0 1-.459-.148h-.001a.95.95 0 0 1-.356-.274.792.792 0 1 0-1.197 1.037 2.5 2.5 0 0 0 .967.708 3.8 3.8 0 0 0 .774.237h.007v.783a.792.792 0 1 0 1.583 0v-.79a3.6 3.6 0 0 0 1.17-.479 2.22 2.22 0 0 0 1.107-1.9z"/>
</svg>
