<svg xmlns="http://www.w3.org/2000/svg" xml:space="preserve" width="800" height="800" version="1.0" viewBox="0 0 64 64">
  <path fill="#231F20" d="M60 8H4c-2.211 0-4 1.789-4 4v40c0 2.211 1.789 4 4 4h56c2.211 0 4-1.789 4-4V12c0-2.211-1.789-4-4-4M4 10h56a2 2 0 0 1 2 2v2.469L32 36.754 2 14.469V12a2 2 0 0 1 2-2m56 44H4a2 2 0 0 1-2-2v-2.808l18.584-13.381a1 1 0 0 0-1.168-1.624L2 46.729V16.961l29.403 21.842a1 1 0 0 0 1.194 0L62 16.961v29.768l-17.416-12.54a1 1 0 1 0-1.168 1.624L62 49.192V52a2 2 0 0 1-2 2"/>
</svg>
