<svg xmlns="http://www.w3.org/2000/svg" width="800" height="800" fill="none" viewBox="0 0 24 24">
  <path stroke="#000" stroke-linecap="round" stroke-linejoin="round" stroke-width="2" d="M12 7v13m0-13H8.464c-.52 0-1.02-.21-1.389-.586A2.02 2.02 0 0 1 6.5 5c0-.53.207-1.04.575-1.414A1.95 1.95 0 0 1 8.465 3C11.214 3 12 7 12 7m0 0h3.536c.52 0 1.02-.21 1.389-.586A2.02 2.02 0 0 0 17.5 5c0-.53-.207-1.04-.575-1.414A1.95 1.95 0 0 0 15.535 3C12.786 3 12 7 12 7m-7 5h14v5.8c0 1.12 0 1.68-.218 2.108a2 2 0 0 1-.874.874C17.48 21 16.92 21 15.8 21H8.2c-1.12 0-1.68 0-2.108-.218a2 2 0 0 1-.874-.874C5 19.48 5 18.92 5 17.8zm-.4 0h14.8c.56 0 .84 0 1.054-.109a1 1 0 0 0 .437-.437C21 11.24 21 10.96 21 10.4V8.6c0-.56 0-.84-.109-1.054a1 1 0 0 0-.437-.437C20.24 7 19.96 7 19.4 7H4.6c-.56 0-.84 0-1.054.109a1 1 0 0 0-.437.437C3 7.76 3 8.04 3 8.6v1.8c0 .56 0 .84.109 1.054a1 1 0 0 0 .437.437C3.76 12 4.04 12 4.6 12"/>
</svg>
