<svg xmlns="http://www.w3.org/2000/svg" width="800" height="800" viewBox="0 0 32 32">
  <path d="M25.063 15.214a18 18 0 0 0-1.49-2.732l.043.068q-.262-.421-.518-.849c-.807-1.36-1.51-2.448-2.215-3.425a14 14 0 0 0-1.037-1.294l.011.013a2.8 2.8 0 0 0-.981-.763l-.017-.007a.77.77 0 0 0-.433-.034l.005-.001a2.75 2.75 0 0 0-2.021 1.395l-.007.014c-.155.365-.245.79-.245 1.236 0 .496.111.967.311 1.387l-.008-.02 2.077 4.622a2.15 2.15 0 0 0-2.095 2.318v-.007 3.11l-.435 1.485-.435-1.485v-3.11a2.15 2.15 0 0 0-2.094-2.308h-.002l2.072-4.613c.194-.404.307-.878.307-1.379 0-.445-.09-.87-.252-1.256l.008.021a2.75 2.75 0 0 0-2.013-1.408l-.015-.002a.8.8 0 0 0-.435.036l.005-.002a2.8 2.8 0 0 0-1.01.787l-.004.005c-.342.379-.672.79-.979 1.22l-.028.042c-.707.977-1.411 2.064-2.216 3.424q-.252.422-.512.84a18 18 0 0 0-1.406 2.557l-.047.116a9.8 9.8 0 0 0-.726 3.737c0 1.178.204 2.309.579 3.358l-.022-.07c.452 1.09.82 2.367 1.044 3.692l.015.107h-.69a.75.75 0 0 0-.75.75V30c0 .414.336.75.75.75h17.712a.75.75 0 0 0 .75-.75v-3.211a.75.75 0 0 0-.75-.75h-.691a18.5 18.5 0 0 1 1.114-3.951l-.045.123a9.8 9.8 0 0 0 .548-3.259 9.9 9.9 0 0 0-.752-3.805zM8.187 21.715a8.4 8.4 0 0 1-.456-2.758c0-1.143.224-2.234.63-3.231l-.021.057c.424-.948.871-1.753 1.379-2.514l-.039.062q.268-.43.527-.865c.78-1.318 1.461-2.369 2.139-3.307.305-.429.606-.804.926-1.16l-.01.011c.083-.089.184-.199.276-.28.31.075.566.267.724.525l.003.005a1.77 1.77 0 0 1-.085 1.338l.005-.011-2.892 6.436a.75.75 0 0 0-.065.308v6.437a.75.75 0 0 0 1.5 0v-5.632c0-1.271 1.343-1.268 1.345 0v3.221q0 .112.032.213l-.001-.005 1.147 3.918v1.557H9.349a18.7 18.7 0 0 0-1.207-4.449zm15.926 7.535H7.901v-1.711h16.212zm-.275-7.564a18.3 18.3 0 0 0-1.158 4.25l-.013.104h-5.902v-1.557l1.147-3.918a.7.7 0 0 0 .03-.208v-3.221c-.001-.969.784-1.019 1.118-.678a.93.93 0 0 1 .229.613l-.002.067v-.003 5.632a.75.75 0 0 0 1.5 0V16.33a.8.8 0 0 0-.068-.312l.002.005-2.896-6.446a1.8 1.8 0 0 1-.165-.754q.001-.3.092-.57l-.004.013c.16-.266.418-.46.721-.534l.008-.002c.094.084.201.199.295.303.303.337.597.704.871 1.087l.026.038a43 43 0 0 1 2.139 3.309c.174.293.354.582.531.872.467.697.914 1.5 1.294 2.338l.044.107a8.4 8.4 0 0 1 .61 3.172 8.5 8.5 0 0 1-.466 2.791l.018-.06zM6.671 12.335a.75.75 0 0 0-.332-1.004l-.004-.002-4-2a.75.75 0 0 0-.674 1.34l.004.002 4 2a.75.75 0 0 0 1.004-.332zM7.47 8.53a.75.75 0 1 0 1.061-1.06l-6-6a.75.75 0 0 0-1.06 1.061zm22.194.799-4 2a.75.75 0 1 0 .676 1.34l-.004.002 4-2a.75.75 0 1 0-.676-1.34zM24 8.75h.001a.75.75 0 0 0 .531-.22l6-6a.75.75 0 0 0-1.062-1.061l-6 6a.75.75 0 0 0 .53 1.28h.001zm-3.379-4.102c.1.054.219.085.345.085h.001a.75.75 0 0 0 .664-.399l.002-.004 1.033-1.983a.75.75 0 0 0-1.33-.698l-.002.004-1.033 1.983a.75.75 0 0 0 .316 1.01zM10.368 4.33a.75.75 0 0 0 1.328-.698l.002.004-1.033-1.983a.75.75 0 0 0-1.328.698l-.002-.004z"/>
</svg>
