<svg xmlns="http://www.w3.org/2000/svg" xml:space="preserve" width="800" height="800" version="1.0" viewBox="0 0 64 64">
  <path fill="#394240" d="M48 5a15.95 15.95 0 0 0-11.312 4.688L32 14.344l-4.688-4.656A15.95 15.95 0 0 0 16 5C7.164 5 0 12.164 0 21c0 4.418 2.852 8.543 5.75 11.438l23.422 23.426a4 4 0 0 0 5.656 0L58.188 32.5C61.086 29.605 64 25.418 64 21c0-8.836-7.164-16-16-16M32 47.375 11.375 26.75C9.926 25.305 8 23.211 8 21a8 8 0 0 1 13.656-5.656l7.516 7.484a4 4 0 0 0 5.656 0l7.516-7.484A8 8 0 0 1 56 21c0 2.211-1.926 4.305-3.375 5.75z"/>
  <path fill="#F76D57" d="M32 47.375 11.375 26.75C9.926 25.305 8 23.211 8 21a8 8 0 0 1 13.656-5.656l7.516 7.484a4 4 0 0 0 5.656 0l7.516-7.484A8 8 0 0 1 56 21c0 2.211-1.926 4.305-3.375 5.75z"/>
</svg>
