<svg xmlns="http://www.w3.org/2000/svg" width="800" height="800" fill="none" viewBox="0 0 24 24">
  <path fill="#000" d="M11.7 4.25a.75.75 0 1 0 0 1.5zm1.865 1.126.29-.692zM15.753 7.2l-.626.413zm.822 2.74h.75v-.001zm-1.428 3.493-.611-.435-.025.038zM13.73 15.7l-.636-.397-.003.004zM11.7 19l-.638.394a.75.75 0 0 0 1.277 0zm-2.03-3.293.637-.394-.002-.003zm-1.417-2.271.637-.397-.026-.038zM6.825 9.943h-.75zM7.647 7.2l.626.413zm2.188-1.821.29.692h.001zm1.866.371a.75.75 0 1 0-.002-1.5zm-.001 5.087a.75.75 0 0 0 0 1.5zm0-3.294a.75.75 0 0 0 0 1.5zm.019 4.8a.75.75 0 0 0-.038-1.5zm-1.443-1.561.651-.373zm0-1.67-.65-.374zm1.405-.062a.75.75 0 0 0 .038-1.5zm.019-3.3c.54 0 1.075.108 1.575.318l.58-1.384A5.6 5.6 0 0 0 11.7 4.25zm1.575.318c.75.314 1.395.85 1.852 1.545l1.252-.826a5.64 5.64 0 0 0-2.524-2.103zm1.852 1.545c.453.686.697 1.497.698 2.328l1.5-.002a5.74 5.74 0 0 0-.946-3.152zm.698 2.327c0 .564-.085.976-.27 1.403-.194.45-.509.94-1.019 1.655l1.221.87c.512-.717.911-1.32 1.175-1.93.275-.635.393-1.252.393-1.998zm-1.314 3.096-1.416 2.267 1.272.794 1.416-2.267zm-1.419 2.27-2.03 3.3 1.277.787 2.03-3.3zm-.754 3.3-2.03-3.293-1.277.788 2.03 3.293zm-2.032-3.296L8.89 13.04l-1.273.793 1.416 2.27zm-1.442-2.309c-.51-.717-.825-1.206-1.02-1.657-.184-.425-.269-.837-.269-1.401h-1.5c0 .746.118 1.363.393 1.997.264.61.663 1.212 1.174 1.93zM7.575 9.944c0-.833.245-1.644.698-2.33L7.02 6.786a5.74 5.74 0 0 0-.946 3.155zm.698-2.33a4.14 4.14 0 0 1 1.852-1.543l-.58-1.384a5.64 5.64 0 0 0-2.524 2.1zm1.853-1.544c.5-.21 1.035-.32 1.575-.32l-.002-1.5c-.74.001-1.472.15-2.155.438zm1.574 6.267c.851 0 1.628-.466 2.044-1.206l-1.307-.735a.85.85 0 0 1-.737.441zm2.044-1.206a2.43 2.43 0 0 0 0-2.382l-1.307.735a.93.93 0 0 1 0 .912zm0-2.382A2.35 2.35 0 0 0 11.7 7.543v1.5c.296 0 .58.162.737.441zm-2.063 2.094a.85.85 0 0 1-.754-.434l-1.301.746a2.35 2.35 0 0 0 2.093 1.188zm-.754-.434a.93.93 0 0 1 0-.925l-1.301-.746a2.43 2.43 0 0 0 0 2.417zm0-.925a.85.85 0 0 1 .754-.434l.038-1.5a2.35 2.35 0 0 0-2.093 1.188z"/>
</svg>
