<svg xmlns="http://www.w3.org/2000/svg" width="800" height="800" viewBox="0 0 20 20">
  <path d="M9.744 0 9.24.053l-.496.103L8.26.31l-.465.197-.441.246-.417.289-.384.332-.35.367-.308.399-.27.43-.223.454-.175.477-.127.488-.077.502-.025.506.025.818.077.817.129.808.18.8.228.786.279.772.326.75.373.728.418.705.463.678.504.647.543.613h.002l.24.217.276.174.296.129.317.08.324.033.324-.033.315-.08.299-.13.275-.173.242-.217.543-.613.502-.647.465-.678.416-.705.373-.728.326-.75.28-.772.23-.787.178-.799.129-.808.076-.817.027-.818-.027-.506-.076-.502-.125-.488-.178-.477-.223-.455-.265-.43-.311-.398-.352-.367-.384-.332-.414-.289L12.2.506l-.467-.197-.484-.153-.496-.103L10.25 0zm.254.996.447.025.444.075.431.125.412.172.395.216.365.26.334.299.299.334.26.365.217.393.171.416.125.43.077.44.023.448-.023.758-.073.752-.119.746-.164.74-.213.725-.256.71-.302.696-.344.672-.387.65-.424.625-.466.596-.5.566-.157.135-.175.098-.194.058-.203.028-.203-.028-.193-.058-.176-.098-.156-.135-.5-.566-.467-.596-.424-.625-.387-.65-.344-.672-.302-.695-.256-.711-.213-.725-.164-.74-.12-.746-.072-.752-.023-.758.025-.447.075-.442.123-.43.172-.415.218-.393.26-.365.299-.334.334-.299.365-.26.393-.216.416-.172.43-.125.44-.075zm-.082 1.998-.318.04-.309.091-.291.135-.266.183-.23.223-.193.258-.15.287-.104.305-.051.316v.324l.05.317.104.304.15.285.194.258.23.221.266.184.291.138.309.09.318.04.322-.007.317-.066.3-.115.28-.16.25-.204.213-.24.172-.273.125-.295.078-.313.025-.322v-.002l-.025-.32-.078-.313-.125-.297-.172-.271-.213-.24-.25-.207-.28-.16-.3-.114-.317-.066zm.082 1 .22.027.214.075.19.119.16.158.118.188.073.212.025.223-.025.22-.073.214-.119.19-.16.16-.19.118-.212.075-.221.025-.223-.025-.213-.075-.187-.119-.158-.16-.12-.19-.074-.212-.025-.22.025-.224.075-.212.119-.188.158-.158.188-.12.212-.074zm-4.824 6.621-.469.139-.467.154-.459.172-.455.191-.443.21-.432.234-.418.258-.4.285-.381.314-.348.344-.16.186-.15.197-.139.201-.121.215-.107.219-.088.23-.069.238-.045.243-.023.244.002.248.025.244.05.242.071.234.09.229.108.22.127.214.138.2.15.196.335.361.367.327.39.294.413.27.425.244.44.219.45.201.458.18.463.16.469.146.472.13.479.113.482.101.485.086.484.072.979.106.98.06.98.014.985-.04.978-.089.971-.139.483-.09.482-.105.475-.117.474-.133.469-.152.46-.166.456-.186.447-.207.434-.226.426-.25.404-.278.385-.304.357-.336.168-.182.154-.19.147-.197.13-.207.118-.217.098-.224.078-.235.06-.238.037-.244.012-.244-.01-.227-.031-.224-.049-.219-.068-.215-.086-.21-.1-.204-.111-.195-.127-.188-.285-.353-.315-.323-.341-.296-.362-.27-.38-.246-.391-.223-.405-.207-.41-.187-.42-.17-.423-.154-.428-.141-.436-.127v-.01l-.213.463-.23.453.734.213.719.258.354.148.345.16.342.174.332.188.32.209.307.226.291.248.268.276.236.297.103.162.09.168.075.176.056.181.037.188.012.191-.014.213-.045.207-.068.201-.092.194-.107.183-.123.174-.278.32-.31.29-.336.261-.354.236-.367.213-.377.198-.386.175-.393.162-.398.145-.405.133-.408.115-.826.201-.834.155-.842.115-.848.07-.85.035-.849-.004-.847-.04-.844-.083-.844-.12-.832-.163-.824-.209-.406-.125-.403-.135-.396-.152-.39-.168-.384-.184-.375-.2-.36-.225-.349-.244-.324-.27-.3-.305-.137-.162-.125-.172-.112-.18-.093-.189-.075-.201-.05-.207-.022-.209.01-.213.039-.21.06-.202.086-.193.106-.188.119-.174.133-.168.293-.308.32-.28.344-.25.357-.226.373-.207.38-.19.388-.168.396-.156.4-.139.407-.125.41-.115-.228-.453-.215-.463z" style="fill:#222;fill-opacity:1;stroke:none;stroke-width:0"/>
</svg>
