<svg xmlns="http://www.w3.org/2000/svg" xml:space="preserve" width="800" height="800" viewBox="0 0 213.243 213.243">
  <path d="M169.549 31.576h-19.761V7.5a7.5 7.5 0 0 0-9.787-7.142L41.496 31.905l-.077.025-.012.004-.051.019a7 7 0 0 0-.641.242c-.07.031-.136.067-.205.099-.15.071-.301.141-.445.221-.107.059-.207.125-.31.188-.101.063-.203.122-.3.189-.12.082-.233.171-.347.259-.075.059-.153.114-.226.175q-.17.145-.33.3-.104.094-.203.192-.145.15-.28.308-.106.117-.207.239-.113.144-.218.292-.111.148-.215.302c-.057.086-.108.176-.161.265a7 7 0 0 0-.211.366c-.043.081-.08.165-.119.248-.065.135-.13.27-.187.409-.036.087-.065.176-.097.265-.05.137-.101.273-.143.414-.033.11-.058.222-.086.333-.03.121-.063.24-.087.363-.031.157-.052.317-.073.476-.01.081-.026.16-.034.241a7 7 0 0 0-.034.668l-.003.069v166.666a7.5 7.5 0 0 0 7.5 7.5H99.95v-4.234c-.273-2.21-2.046-15.032-7.629-27.025-6.084-13.069-16.529-23.145-16.635-23.245a7.501 7.501 0 0 1 10.369-10.84c.386.369 7.37 7.109 13.895 17.1v-31.185a18.5 18.5 0 0 1-5.839-4.177 18.45 18.45 0 0 1-13.857-5.403 18.5 18.5 0 0 1-5.405-13.87c-3.544-3.433-5.652-8.213-5.652-13.294s2.108-9.862 5.652-13.294a18.5 18.5 0 0 1 5.405-13.87 18.45 18.45 0 0 1 13.857-5.403 18.49 18.49 0 0 1 26.987-.004c5.083-.106 9.897 1.82 13.485 5.407a18.5 18.5 0 0 1 5.406 13.48c3.785 3.441 6.039 8.365 6.039 13.685s-2.255 10.244-6.038 13.685a18.52 18.52 0 0 1-5.407 13.479 18.4 18.4 0 0 1-13.485 5.407 18.6 18.6 0 0 1-6.148 4.319v35.19c4.44-6.059 8.488-9.969 8.752-10.222a7.5 7.5 0 0 1 10.369 10.84c-.073.07-8.284 8.043-12.993 18.155-4.771 10.251-5.994 21.319-6.006 21.43q-.042.386-.122.759v3.132h54.599a7.5 7.5 0 0 0 7.5-7.5V39.076a7.5 7.5 0 0 0-7.5-7.5m-34.761 0H91.702l43.086-13.799zm-7.405 65.492c0 10.901-8.868 19.77-19.77 19.77s-19.771-8.869-19.771-19.77 8.869-19.77 19.771-19.77 19.77 8.869 19.77 19.77"/>
</svg>
