<svg xmlns="http://www.w3.org/2000/svg" xml:space="preserve" width="800" height="800" style="fill-rule:evenodd;clip-rule:evenodd;stroke-linejoin:round;stroke-miterlimit:2" viewBox="0 0 64 64">
  <path d="M-1024-64H256v800h-1280z" style="fill:none"/>
  <path d="M46.03 32a4.987 4.987 0 0 1 4.985-4.985A4.99 4.99 0 0 1 56 32a4.99 4.99 0 0 1-4.985 4.985A4.987 4.987 0 0 1 46.03 32" style="fill:#d9d9d9"/>
  <path d="M41.92 41.92a4.99 4.99 0 0 1 7.051 0 4.99 4.99 0 0 1 0 7.051 4.99 4.99 0 0 1-7.051 0 4.99 4.99 0 0 1 0-7.051" style="fill:#b3b3b3"/>
  <circle cx="32" cy="51.015" r="4.985" style="fill:#8c8c8c"/>
  <path d="M22.08 41.92a4.99 4.99 0 0 1 0 7.051 4.99 4.99 0 0 1-7.051 0 4.99 4.99 0 0 1 0-7.051 4.99 4.99 0 0 1 7.051 0" style="fill:#666"/>
  <path d="M17.97 32a4.987 4.987 0 0 1-4.985 4.985A4.99 4.99 0 0 1 8 32a4.99 4.99 0 0 1 4.985-4.985A4.987 4.987 0 0 1 17.97 32m4.11-9.92a4.99 4.99 0 0 1-7.051 0 4.99 4.99 0 0 1 0-7.051 4.99 4.99 0 0 1 7.051 0 4.99 4.99 0 0 1 0 7.051" style="fill:#404040"/>
  <circle cx="32" cy="12.985" r="4.985"/>
</svg>
