<svg xmlns="http://www.w3.org/2000/svg" width="800" height="800" fill="none" stroke="#000" stroke-width="3" viewBox="0 0 64 64">
  <path d="M52 27.18v25.58a2.92 2.92 0 0 1-3 2.84H15a2.92 2.92 0 0 1-3-2.84V27.17"/>
  <path d="M26.26 55.52V38.45h11.58v17.07M8.44 19.18s-1.1 7.76 6.45 8.94a7.17 7.17 0 0 0 6.1-2A7.43 7.43 0 0 0 32 26a7.4 7.4 0 0 0 5 2.49 11.8 11.8 0 0 0 5.9-2.15 6.66 6.66 0 0 0 4.67 2.15 8 8 0 0 0 7.93-9.3L50.78 9.05a1 1 0 0 0-.94-.65H14a1 1 0 0 0-.94.66Zm0 0h47.1m-34.5 0V8.4m11.01 10.78V8.4m10.96 10.78V8.4"/>
</svg>
