<svg xmlns="http://www.w3.org/2000/svg" width="800" height="800" fill="none" viewBox="0 0 24 24">
  <path fill="#000" fill-rule="evenodd" d="M13.46 4.682a6.15 6.15 0 0 0-5.013.212c-1.7.85-2.807 2.34-3.499 4.41C4.25 11.399 4 14.022 4 17c0 .675.347 1.433.957 2.043S6.325 20 7 20c2.883 0 5.505-.242 7.623-.94 2.1-.691 3.63-1.802 4.483-3.507a6.24 6.24 0 0 0 .25-5.027 5.1 5.1 0 0 0-.948-1.586l.573 2.864a1 1 0 0 1-1.962.392l-.383-1.915-.722 1.625a1 1 0 1 1-1.828-.812l.944-2.124-2.124.944a1 1 0 1 1-.812-1.828l1.626-.722-1.916-.383a1 1 0 0 1 .392-1.962l2.782.557a5.4 5.4 0 0 0-1.518-.894m5.314 1.958c1.093.699 1.948 1.867 2.449 3.167a8.24 8.24 0 0 1-.329 6.64c-1.16 2.321-3.21 3.71-5.645 4.513-2.418.796-5.29 1.04-8.25 1.04-1.324 0-2.566-.653-3.456-1.543S2 18.325 2 17c0-3.054.25-5.93 1.051-8.329.809-2.421 2.202-4.415 4.502-5.565a8.15 8.15 0 0 1 6.64-.284c1.286.507 2.446 1.356 3.148 2.423l.952-.952a1 1 0 0 1 1.414 1.414zM13 17a1 1 0 1 1-2 0 1 1 0 0 1 2 0m4-1a1 1 0 1 0 0-2 1 1 0 0 0 0 2m-5-3a1 1 0 1 1-2 0 1 1 0 0 1 2 0m-5 0a1 1 0 1 0 0-2 1 1 0 0 0 0 2m1 4a1 1 0 1 1-2 0 1 1 0 0 1 2 0m1-9a1 1 0 1 0 0-2 1 1 0 0 0 0 2" clip-rule="evenodd"/>
</svg>
