<svg xmlns="http://www.w3.org/2000/svg" xml:space="preserve" width="800" height="800" viewBox="0 0 512.002 512.002">
  <path d="M511.784 460.899 497.01 355.066l-1.53-68.751-11.869-144.401c-1.237-15.049-14.167-26.418-29.251-25.719l-42.992 2.486-31.801-15.384 3.981-3.536c-8.258-9.629-13.264-22.125-13.264-35.775 0-.777.027-1.547.059-2.315l-36.385 32.31c-9.905 8.793-7.712 24.904 4.256 30.692l51.8 25.055 1.401 17.038 6.844-1.013 36.861-22.695-36.793 38.822-52.141 7.711c-1.304-16.048-.751-32.93 2.496-48.916.665-3.275-4.134-4.561-5.182-1.368-2.69 8.197-4.7 16.724-6.113 25.352-5.461-13.821-12.528-25.989-21.091-36.307a9.45 9.45 0 0 0 2.448-3.161c2.255-4.728.322-10.664-5.043-12.904 5.613-1.693 8.103-7.402 6.366-12.306-1.748-4.937-7.312-7.769-12.692-5.558 2.771-5.156.501-10.961-4.2-13.204-4.71-2.247-10.65-.342-12.904 5.044-1.683-5.599-7.391-8.106-12.306-6.366-4.911 1.739-7.775 7.276-5.558 12.691-5.138-2.764-10.954-.515-13.203 4.201-2.237 4.69-.367 10.63 5.044 12.904-5.614 1.694-8.103 7.402-6.366 12.306 1.735 4.898 7.257 7.776 12.692 5.558-2.77 5.153-.504 10.959 4.2 13.203 4.71 2.247 10.65.343 12.904-5.043 1.683 5.599 7.391 8.106 12.306 6.366a9.47 9.47 0 0 0 5.711-5.603c12.934 15.417 20.981 34.419 25.711 53.807-7.011-9.525-15.282-18.944-24.223-26.934-2.499-2.234-6.02 1.274-3.801 3.779 8.024 9.061 15.003 19.27 20.884 29.853-3.703 3.998-5.634 9.572-4.775 15.382 1.319 8.922 8.764 15.406 17.435 15.859.857 14.635.212 28.246-.468 33.897-.481 3.962 2.603 7.493 6.644 7.493a6.687 6.687 0 0 0 6.629-5.88c.648-5.325 1.646-19.663.584-37.101l59.829-8.847a18.6 18.6 0 0 0 10.794-5.613l41.22-43.494-29.633 54.475c-5.025 9.238-13.514 9.459-20.046 10.424l-15.385 2.275 3.669 44.633-23.6 64.344a22.3 22.3 0 0 0-1.319 6.244l-7.261 111.458c-.837 12.851 9.344 23.803 22.324 23.803 11.681 0 21.511-9.076 22.281-20.898l7.051-108.242 25.149-68.566 5.21-.242 1.757 69.076q.033 1.268.207 2.523l14.95 107.089c1.712 12.264 13.047 20.752 25.226 19.045 12.226-1.703 20.752-12.997 19.046-25.223M292.671 121.427c-5.764 2.041-12.091-.977-14.131-6.741s.977-12.091 6.741-14.131 12.091.977 14.131 6.741-.977 12.09-6.741 14.131"/>
  <circle cx="425.328" cy="63.984" r="38.325"/>
  <circle cx="101.21" cy="76.831" r="36.905"/>
  <path d="M209.817 162.903v23.14h.003l-17.362 2.278V162.9h-30.196c0 30.119-.068 28.151.181 29.358l-15.692 2.059-25.286-40.08 24.972 22.245-5.54-30.275c-1.993-10.895-10.827-18.77-21.095-18.77H82.604c-5.167 0-9.959 1.982-13.704 5.337-1.572.788 3.163-2.32-61.525 41.275-8.423 5.676-9.871 17.497-3.093 25.042l39.507 43.969-15.16 82.849c-1.123 6.143 3.253 11.821 8.969 11.821h21.679v127.247c0 11.799 9.565 21.365 21.364 21.365 1.476 0 2.917-.149 4.309-.435a37.85 37.85 0 0 1-6.29-20.929V337.731h16.714v127.248c0 11.799 9.565 21.364 21.364 21.364s21.364-9.565 21.364-21.364V337.731h26.707c5.752 0 10.091-5.691 8.969-11.821l-15.107-82.563-23.668 3.105c-11.368 1.491-21.879-5.634-24.97-16.32l-16.852-58.051 30.994 49.129a16.72 16.72 0 0 0 16.317 7.657l74.174-9.732c9.423-1.236 16.146-10.174 14.198-19.877h2.375a8.775 8.775 0 0 0 8.775-8.775v-27.581h-30.197zM51.396 201.491l-9.391-10.451 12.892-8.688zM239.167 109.182H209.82v36.357h30.195v-9.733c4.448-.427 7.926-4.173 7.926-8.732v-9.117a8.774 8.774 0 0 0-8.774-8.775"/>
  <path d="M163.112 109.182a8.775 8.775 0 0 0-8.775 8.775v9.117a8.773 8.773 0 0 0 7.926 8.732v9.733h30.196v-36.357zM226.148 73.895c-6.038 0-18.84 6.885-25.428 10.675-6.588-3.789-19.389-10.675-25.428-10.675-9.013 0-16.345 7.332-16.345 16.345a4.217 4.217 0 0 0 4.218 4.217h75.11a4.217 4.217 0 0 0 4.217-4.217c.001-9.013-7.332-16.345-16.344-16.345m-57.544 12.127a7.91 7.91 0 0 1 6.689-3.692c1.706 0 5.566 1.5 10.145 3.692zm47.398 0c4.58-2.193 8.439-3.692 10.145-3.692a7.91 7.91 0 0 1 6.689 3.692z"/>
</svg>
