<svg xmlns="http://www.w3.org/2000/svg" xml:space="preserve" width="800" height="800" version="1.0" viewBox="0 0 64 64">
  <g fill="#231F20">
    <circle cx="46" cy="38" r="2"/>
    <path d="M62 32h-2V16c0-2.211-1.789-4-4-4V8c0-1.343-.404-2.385-1.205-3.099-1.186-1.058-2.736-.91-2.896-.896l-3.789.39-.641-1.761A4 4 0 0 0 42.342.243L24.131 6.871C15.535 7.764 7.397 8.616 3.89 9.006.951 9.332.062 12.908 0 14.97a1 1 0 0 0 .065.38A4 4 0 0 0 0 16v44c0 2.211 1.789 4 4 4h52c2.211 0 4-1.789 4-4V44h2a2 2 0 0 0 2-2v-8a2 2 0 0 0-2-2m-7-14a1 1 0 1 1 0 2h-2a1 1 0 1 1 0-2zm-5 1a1 1 0 0 1-1 1h-2a1 1 0 1 1 0-2h2a1 1 0 0 1 1 1M7 58H5a1 1 0 1 1 0-2h2a1 1 0 1 1 0 2m0-38H5a1 1 0 1 1 0-2h2a1 1 0 1 1 0 2m6 38h-2a1 1 0 1 1 0-2h2a1 1 0 1 1 0 2m0-38h-2a1 1 0 1 1 0-2h2a1 1 0 1 1 0 2m6 38h-2a1 1 0 1 1 0-2h2a1 1 0 1 1 0 2m0-38h-2a1 1 0 1 1 0-2h2a1 1 0 1 1 0 2m6 38h-2a1 1 0 1 1 0-2h2a1 1 0 1 1 0 2m0-38h-2a1 1 0 1 1 0-2h2a1 1 0 1 1 0 2m6 38h-2a1 1 0 1 1 0-2h2a1 1 0 1 1 0 2m0-38h-2a1 1 0 1 1 0-2h2a1 1 0 1 1 0 2m.35-8H15.885l27.141-9.878a2 2 0 0 1 2.564 1.195L48.75 12h-6.098A6 6 0 0 0 37 8a6 6 0 0 0-5.65 4M44 19a1 1 0 0 1-1 1h-2a1 1 0 1 1 0-2h2a1 1 0 0 1 1 1m-7-9c1.477 0 2.752.81 3.445 2h-6.891c.694-1.19 1.969-2 3.446-2m0 48h-2a1 1 0 1 1 0-2h2a1 1 0 1 1 0 2m0-38h-2a1 1 0 1 1 0-2h2a1 1 0 1 1 0 2m6 38h-2a1 1 0 1 1 0-2h2a1 1 0 1 1 0 2m6 0h-2a1 1 0 1 1 0-2h2a1 1 0 1 1 0 2m6 0h-2a1 1 0 1 1 0-2h2a1 1 0 1 1 0 2m7-17a1 1 0 0 1-1 1H43a1 1 0 0 1-1-1v-6a1 1 0 0 1 1-1h18a1 1 0 0 1 1 1z"/>
  </g>
</svg>
